<?xml version="1.0" encoding="UTF-8" standalone="no"?>
<!-- Created with Inkscape (http://www.inkscape.org/) -->

<svg
   xmlns:dc="http://purl.org/dc/elements/1.1/"
   xmlns:cc="http://creativecommons.org/ns#"
   xmlns:rdf="http://www.w3.org/1999/02/22-rdf-syntax-ns#"
   xmlns:svg="http://www.w3.org/2000/svg"
   xmlns="http://www.w3.org/2000/svg"
   xmlns:sodipodi="http://sodipodi.sourceforge.net/DTD/sodipodi-0.dtd"
   xmlns:inkscape="http://www.inkscape.org/namespaces/inkscape"
   width="960"
   height="700"
   viewBox="0 0 960.00001 700.00001"
   id="svg5293"
   version="1.1"
   inkscape:version="0.91 r13725"
   sodipodi:docname="slide05.svg">
  <defs
     id="defs5295" />
  <sodipodi:namedview
     id="base"
     pagecolor="#ffffff"
     bordercolor="#666666"
     borderopacity="1.0"
     inkscape:pageopacity="0.0"
     inkscape:pageshadow="2"
     inkscape:zoom="0.49497475"
     inkscape:cx="547.28194"
     inkscape:cy="386.94702"
     inkscape:document-units="px"
     inkscape:current-layer="layer1"
     showgrid="false"
     units="px"
     inkscape:window-width="1366"
     inkscape:window-height="705"
     inkscape:window-x="-8"
     inkscape:window-y="-8"
     inkscape:window-maximized="1" />
  <metadata
     id="metadata5298">
    <rdf:RDF>
      <cc:Work
         rdf:about="">
        <dc:format>image/svg+xml</dc:format>
        <dc:type
           rdf:resource="http://purl.org/dc/dcmitype/StillImage" />
        <dc:title></dc:title>
      </cc:Work>
    </rdf:RDF>
  </metadata>
  <g
     inkscape:label="Capa 1"
     inkscape:groupmode="layer"
     id="layer1"
     transform="translate(0,-352.36216)">
    <g
       id="g4327"
       transform="translate(-14.203228,-1651.3161)">
      <g
         transform="translate(1.2771838e-5,-47.515075)"
         id="g5708">
        <g
           id="g4425"
           transform="translate(27.274109,-14.142089)">
          <g
             id="g3"
             transform="translate(118.12809,2145.8968)">
            <path
               id="path5"
               d="m 236.07,24.003 c 0.861,7.114 -11.128,9.163 -14.894,4.583 -2.864,-5.406 11.224,-12.193 14.894,-4.583 z"
               inkscape:connector-curvature="0"
               style="clip-rule:evenodd;fill:#4b3900;fill-rule:evenodd" />
            <path
               id="path7"
               d="m 140.972,35.461 c 3.879,0.703 8.848,0.318 8.019,5.729 -3.101,-1.48 -7.078,-2.087 -8.019,-5.729 z"
               inkscape:connector-curvature="0"
               style="clip-rule:evenodd;fill:#4b3900;fill-rule:evenodd" />
            <path
               id="path9"
               d="m 239.509,45.772 c 1.273,4.346 -5.451,9.538 -8.021,13.75 -2.842,-0.595 -4.081,-2.793 -5.728,-4.583 0.371,-6.782 7.511,-15.443 13.749,-9.167 z"
               inkscape:connector-curvature="0"
               style="clip-rule:evenodd;fill:#4b3900;fill-rule:evenodd" />
            <path
               id="path11"
               d="m 157.013,46.918 c -1.047,2.009 -2.129,3.981 -5.729,3.438 0,-1.146 0,-2.292 0,-3.438 2.85,-0.125 3.547,-2.146 5.729,0 z"
               inkscape:connector-curvature="0"
               style="clip-rule:evenodd;fill:#4b3900;fill-rule:evenodd" />
            <path
               id="path13"
               d="m 242.945,64.105 c 5.393,0.481 1.452,3.653 3.438,8.021 -5.182,1.343 -4.011,-7.11 -3.438,-8.021 z"
               inkscape:connector-curvature="0"
               style="clip-rule:evenodd;fill:#4b3900;fill-rule:evenodd" />
            <path
               id="path15"
               d="m 217.739,65.251 c 5.204,-0.471 7.288,6.487 5.729,9.166 -5.664,0.699 -5.28,-4.649 -5.729,-9.166 z"
               inkscape:connector-curvature="0"
               style="clip-rule:evenodd;fill:#4b3900;fill-rule:evenodd" />
            <path
               id="path17"
               d="m 267.008,67.543 c 1.527,0 3.054,0 4.582,0 1.421,3.312 0.585,5.222 -3.438,5.728 -0.962,-1.329 -1.51,-3.071 -1.144,-5.728 z"
               inkscape:connector-curvature="0"
               style="clip-rule:evenodd;fill:#4b3900;fill-rule:evenodd" />
            <path
               id="path19"
               d="m 165.032,73.271 c 2.998,-0.323 4.928,0.418 4.584,3.438 -2.143,2.25 -5.521,0.663 -4.584,-3.438 z"
               inkscape:connector-curvature="0"
               style="clip-rule:evenodd;fill:#4b3900;fill-rule:evenodd" />
            <path
               id="path21"
               d="m 177.637,80.146 c -1.465,1.567 -5.409,1.567 -6.875,0 -0.215,-5.611 7.089,-5.611 6.875,0 z"
               inkscape:connector-curvature="0"
               style="clip-rule:evenodd;fill:#4b3900;fill-rule:evenodd" />
            <path
               id="path23"
               d="M 73.371,81.292 C 68.517,80.271 67.547,82.01 64.205,79 c 1.401,-4.632 8.367,-0.659 9.166,2.292 z"
               inkscape:connector-curvature="0"
               style="clip-rule:evenodd;fill:#4b3900;fill-rule:evenodd" />
            <path
               id="path25"
               d="m 55.039,90.458 c 2.915,0.14 4.442,1.668 4.583,4.583 -3.18,2.615 -6.934,-1.137 -4.583,-4.583 z"
               inkscape:connector-curvature="0"
               style="clip-rule:evenodd;fill:#4b3900;fill-rule:evenodd" />
            <path
               id="path27"
               d="m 217.739,91.604 c 4.229,-0.392 4.163,6.959 2.291,9.167 -2.913,-0.838 -6.736,-7.955 -2.291,-9.167 z"
               inkscape:connector-curvature="0"
               style="clip-rule:evenodd;fill:#4b3900;fill-rule:evenodd" />
            <path
               id="path29"
               d="m 258.987,100.771 c -3.902,-2.01 -4.269,0.371 -5.729,3.437 -2.914,-0.14 -4.442,-1.667 -4.583,-4.583 3.908,-2.777 6.05,-0.607 6.874,-6.875 3.127,-0.834 2.307,2.277 4.584,2.292 0.945,3.238 -1.615,2.968 -1.146,5.729 z"
               inkscape:connector-curvature="0"
               style="clip-rule:evenodd;fill:#4b3900;fill-rule:evenodd" />
            <path
               id="path31"
               d="m 237.218,95.041 c 2.759,-0.469 2.489,2.093 5.728,1.146 0.88,5.625 2.676,4.364 0,9.167 -2.998,-2.35 -3.855,-6.84 -5.728,-10.313 z"
               inkscape:connector-curvature="0"
               style="clip-rule:evenodd;fill:#f6e7a1;fill-rule:evenodd" />
            <path
               id="path33"
               d="m 30.978,101.917 c 4.228,-0.027 7.889,0.513 8.02,4.583 -2.662,-1.541 -8.561,0.158 -8.02,-4.583 z"
               inkscape:connector-curvature="0"
               style="clip-rule:evenodd;fill:#4b3900;fill-rule:evenodd" />
            <path
               id="path35"
               d="m 223.468,124.832 c -0.484,-3.921 3.432,-3.443 4.584,-5.729 -3.038,-4.537 -9.082,-4.306 -13.749,-4.583 2.811,-4.826 6.631,-8.646 11.457,-11.458 0.652,3.708 -0.347,5.763 -2.292,6.875 8.474,2.286 7.063,8.579 6.875,14.895 -1.465,1.566 -5.409,1.566 -6.875,0 z"
               inkscape:connector-curvature="0"
               style="clip-rule:evenodd;fill:#4b3900;fill-rule:evenodd" />
            <path
               id="path37"
               d="m 92.849,106.5 c 1.095,6.442 -1.554,9.138 -3.438,12.603 -4.076,-0.506 -5.017,-4.147 -8.02,-5.729 -1.587,-8.91 6.444,-10.898 11.458,-6.874 z"
               inkscape:connector-curvature="0"
               style="clip-rule:evenodd;fill:#4b3900;fill-rule:evenodd" />
            <path
               id="path39"
               d="m 233.779,108.791 c 0.486,2.395 -0.785,3.033 -1.146,4.583 -1.505,-0.405 -1.802,-2.017 -3.438,-2.292 0.277,-2.015 1.973,-2.611 4.584,-2.291 z"
               inkscape:connector-curvature="0"
               style="clip-rule:evenodd;fill:#4b3900;fill-rule:evenodd" />
            <path
               id="path41"
               d="m 181.075,135.143 c -9.271,-12.993 8.89,-25.351 10.311,-11.458 0.577,5.649 -4.038,9.871 -10.311,11.458 z"
               inkscape:connector-curvature="0"
               style="clip-rule:evenodd;fill:#4b3900;fill-rule:evenodd" />
            <path
               id="path43"
               d="m 40.144,117.957 c 14.85,9.208 -1.606,27.021 -8.02,35.519 -2.14,-2.038 0.931,-2.912 0,-6.874 -4.113,-0.949 -5.543,2.583 -8.021,0 -1.689,-7.037 5.778,-4.917 9.166,-6.875 -3.588,-9.748 1.44,-17.577 6.875,-21.77 z"
               inkscape:connector-curvature="0"
               style="clip-rule:evenodd;fill:#4b3900;fill-rule:evenodd" />
            <path
               id="path45"
               d="m 238.361,125.977 c 2.998,-0.323 4.929,0.418 4.584,3.438 -1.019,0.89 -2.588,1.232 -4.584,1.146 0,-1.529 0,-3.056 0,-4.584 z"
               inkscape:connector-curvature="0"
               style="clip-rule:evenodd;fill:#4b3900;fill-rule:evenodd" />
            <path
               id="path47"
               d="m 202.843,128.269 c 3.169,1.034 5.396,3.009 6.876,5.729 -2.09,1.515 -7.414,-1.07 -6.876,-5.729 z"
               inkscape:connector-curvature="0"
               style="clip-rule:evenodd;fill:#4b3900;fill-rule:evenodd" />
            <path
               id="path49"
               d="m 14.937,129.415 c 1.504,0.405 1.803,2.017 3.438,2.292 -0.276,2.016 -1.972,2.612 -4.583,2.292 -0.486,-2.396 0.784,-3.035 1.145,-4.584 z"
               inkscape:connector-curvature="0"
               style="clip-rule:evenodd;fill:#4b3900;fill-rule:evenodd" />
            <path
               id="path51"
               d="m 234.925,132.852 c 2.657,-0.365 4.4,0.184 5.729,1.146 -0.605,0.922 -1.195,1.86 -1.146,3.437 -3.586,0.531 -5.113,-0.996 -4.583,-4.583 z"
               inkscape:connector-curvature="0"
               style="clip-rule:evenodd;fill:#4b3900;fill-rule:evenodd" />
            <path
               id="path53"
               d="m 110.036,133.998 c 4.412,-0.903 4.412,5.486 0,4.583 0,-1.528 0,-3.056 0,-4.583 z"
               inkscape:connector-curvature="0"
               style="clip-rule:evenodd;fill:#4b3900;fill-rule:evenodd" />
            <path
               id="path55"
               d="m 97.432,136.289 c 3.408,0.1 3.066,6.833 -1.145,5.729 -1.272,-3.598 -0.537,-3.027 1.145,-5.729 z"
               inkscape:connector-curvature="0"
               style="clip-rule:evenodd;fill:#4b3900;fill-rule:evenodd" />
            <path
               id="path57"
               d="m 61.914,140.872 c 2.916,0.141 4.443,1.668 4.583,4.583 -1.02,0.89 -2.588,1.231 -4.583,1.146 -1.471,-1.505 -1.471,-4.223 0,-5.729 z"
               inkscape:connector-curvature="0"
               style="clip-rule:evenodd;fill:#4b3900;fill-rule:evenodd" />
            <path
               id="path59"
               d="m 222.321,140.872 c 3.668,-0.229 4.954,1.92 5.73,4.583 -1.356,1.319 -4.051,1.297 -6.875,1.146 -0.47,-2.76 2.093,-2.491 1.145,-5.729 z"
               inkscape:connector-curvature="0"
               style="clip-rule:evenodd;fill:#f6e7a1;fill-rule:evenodd" />
            <path
               id="path61"
               d="m 275.027,140.872 c 2.997,-0.323 4.929,0.419 4.584,3.438 -1.964,2.069 -4.506,-0.352 -4.584,-3.438 z"
               inkscape:connector-curvature="0"
               style="clip-rule:evenodd;fill:#4b3900;fill-rule:evenodd" />
            <path
               id="path63"
               d="m 112.328,146.602 c -1.528,0 -3.056,0 -4.583,0 -1.025,-5.333 6.071,-5.875 4.583,0 z"
               inkscape:connector-curvature="0"
               style="clip-rule:evenodd;fill:#4b3900;fill-rule:evenodd" />
            <path
               id="path65"
               d="m 285.339,143.163 c 2.54,-0.63 1.633,2.188 3.438,2.292 -2.542,2.227 -6.381,8.028 -9.166,3.438 -0.157,-3.975 5.803,-1.834 5.728,-5.73 z"
               inkscape:connector-curvature="0"
               style="clip-rule:evenodd;fill:#4b3900;fill-rule:evenodd" />
            <path
               id="path67"
               d="m 42.435,144.31 c 1.528,0 3.056,0 4.583,0 0.485,2.395 -0.785,3.034 -1.146,4.583 -3.018,0.345 -3.76,-1.586 -3.437,-4.583 z"
               inkscape:connector-curvature="0"
               style="clip-rule:evenodd;fill:#4b3900;fill-rule:evenodd" />
            <path
               id="path69"
               d="m 55.039,146.602 c 2.638,2.773 -1.167,5.565 -1.146,9.166 -5.355,-0.716 -2.622,-8.451 1.146,-9.166 z"
               inkscape:connector-curvature="0"
               style="clip-rule:evenodd;fill:#4b3900;fill-rule:evenodd" />
            <path
               id="path71"
               d="m 195.969,146.602 c 2.328,0.834 4.68,3.447 2.291,5.728 -3.966,0.803 -4.109,-4.017 -2.291,-5.728 z"
               inkscape:connector-curvature="0"
               style="clip-rule:evenodd;fill:#4b3900;fill-rule:evenodd" />
            <path
               id="path73"
               d="m 159.304,150.039 c 1.506,0.404 1.803,2.017 3.438,2.291 -1.426,3.538 -1.358,8.572 -6.876,8.021 -2.72,-3.557 2.037,-7.294 3.438,-10.312 z"
               inkscape:connector-curvature="0"
               style="clip-rule:evenodd;fill:#4b3900;fill-rule:evenodd" />
            <path
               id="path75"
               d="m 189.094,151.185 c 5.924,-0.958 3.785,6.145 9.166,5.729 -1.095,4.634 -5.326,6.129 -9.166,8.021 -2.685,-3.894 -2.685,-9.857 0,-13.75 z"
               inkscape:connector-curvature="0"
               style="clip-rule:evenodd;fill:#4b3900;fill-rule:evenodd" />
            <path
               id="path77"
               d="m 144.409,152.33 c 1.146,0 2.291,0 3.438,0 0,1.528 0,3.056 0,4.583 -3.02,0.346 -3.761,-1.586 -3.438,-4.583 z"
               inkscape:connector-curvature="0"
               style="clip-rule:evenodd;fill:#4b3900;fill-rule:evenodd" />
            <path
               id="path79"
               d="m 263.57,159.205 c 1.255,3.083 0.215,5.875 -1.146,9.166 -7.857,-1.69 -13.395,-5.703 -18.332,-10.311 3.248,-7.578 14.315,-0.031 19.478,1.145 z"
               inkscape:connector-curvature="0"
               style="clip-rule:evenodd;fill:#4b3900;fill-rule:evenodd" />
            <path
               id="path81"
               d="m 136.389,155.768 c 1.851,-0.323 1.972,1.083 3.437,1.146 0.31,4.75 -1.505,4.464 0,8.021 -2.566,0.785 -5.741,3.443 -8.019,1.146 0.832,-6.091 5.541,-4.604 4.582,-10.313 z"
               inkscape:connector-curvature="0"
               style="clip-rule:evenodd;fill:#4b3900;fill-rule:evenodd" />
            <path
               id="path83"
               d="m 96.287,156.913 c 1.146,0 2.292,0 3.438,0 0.225,3.281 0.142,6.253 -3.438,5.729 0,-1.909 0,-3.819 0,-5.729 z"
               inkscape:connector-curvature="0"
               style="clip-rule:evenodd;fill:#4b3900;fill-rule:evenodd" />
            <path
               id="path85"
               d="m 114.619,156.913 c 2.145,1.293 5.52,1.355 4.583,5.729 -1.332,-0.187 -2.039,0.253 -2.292,1.146 -2.717,-0.634 -4.754,-4.431 -2.291,-6.875 z"
               inkscape:connector-curvature="0"
               style="clip-rule:evenodd;fill:#4b3900;fill-rule:evenodd" />
            <path
               id="path87"
               d="m 124.931,159.205 c 3.02,-0.346 3.76,1.587 3.438,4.583 -2.997,0.323 -4.929,-0.418 -4.583,-3.438 0.974,0.212 1.081,-0.447 1.145,-1.145 z"
               inkscape:connector-curvature="0"
               style="clip-rule:evenodd;fill:#4b3900;fill-rule:evenodd" />
            <path
               id="path89"
               d="m 140.972,159.205 c 2.825,-0.151 5.52,-0.174 6.875,1.146 -0.339,4.626 -0.991,8.94 -4.583,10.312 -6.06,-1.034 -1.11,-5.956 -2.292,-11.458 z"
               inkscape:connector-curvature="0"
               style="clip-rule:evenodd;fill:#4b3900;fill-rule:evenodd" />
            <path
               id="path91"
               d="m 165.032,160.351 c 1.851,-0.323 1.974,1.083 3.439,1.146 0.346,3.019 -1.587,3.761 -4.583,3.438 -0.486,-2.396 0.784,-3.035 1.144,-4.584 z"
               inkscape:connector-curvature="0"
               style="clip-rule:evenodd;fill:#4b3900;fill-rule:evenodd" />
            <path
               id="path93"
               d="m 73.371,162.642 c 0.921,-0.606 1.86,-1.195 3.438,-1.146 0.961,1.33 1.511,3.072 1.146,5.729 -3.588,0.531 -5.115,-0.996 -4.584,-4.583 z"
               inkscape:connector-curvature="0"
               style="clip-rule:evenodd;fill:#4b3900;fill-rule:evenodd" />
            <path
               id="path95"
               d="m 65.351,167.225 c 1.146,0 2.291,0 3.438,0 0.485,2.395 -0.786,3.035 -1.146,4.583 -2.016,-0.276 -2.613,-1.971 -2.292,-4.583 z"
               inkscape:connector-curvature="0"
               style="clip-rule:evenodd;fill:#4b3900;fill-rule:evenodd" />
            <path
               id="path97"
               d="m 126.076,167.225 c 0,1.528 0,3.056 0,4.583 -2.996,0.323 -4.929,-0.418 -4.582,-3.438 1.02,-0.889 2.586,-1.231 4.582,-1.145 z"
               inkscape:connector-curvature="0"
               style="clip-rule:evenodd;fill:#4b3900;fill-rule:evenodd" />
            <path
               id="path99"
               d="m 181.075,167.225 c 1.527,0 3.056,0 4.582,0 0.904,4.412 -5.485,4.412 -4.582,0 z"
               inkscape:connector-curvature="0"
               style="clip-rule:evenodd;fill:#4b3900;fill-rule:evenodd" />
            <path
               id="path101"
               d="m 161.596,169.517 c 9.045,-4.878 2.914,9.837 0,0 l 0,0 z"
               inkscape:connector-curvature="0"
               style="clip-rule:evenodd;fill:#4b3900;fill-rule:evenodd" />
            <path
               id="path103"
               d="m 332.316,169.517 c 1.146,0 2.291,0 3.438,0 0,1.909 0,3.819 0,5.728 -2.365,-1.835 -7.343,-1.06 -8.021,-4.583 1.852,-0.323 1.975,1.083 3.438,1.146 1.114,-0.032 0.89,-1.402 1.145,-2.291 z"
               inkscape:connector-curvature="0"
               style="clip-rule:evenodd;fill:#4b3900;fill-rule:evenodd" />
            <path
               id="path105"
               d="m 130.66,172.954 c 2.997,-0.323 4.929,0.418 4.583,3.437 -1.02,0.89 -2.587,1.232 -4.583,1.146 0,-1.528 0,-3.056 0,-4.583 z"
               inkscape:connector-curvature="0"
               style="clip-rule:evenodd;fill:#4b3900;fill-rule:evenodd" />
            <path
               id="path107"
               d="m 151.284,174.1 c 3.223,0.215 4.881,1.994 4.582,5.729 -1.463,1.568 -5.41,1.568 -6.875,0 -0.176,-2.85 1.801,-3.548 2.293,-5.729 z"
               inkscape:connector-curvature="0"
               style="clip-rule:evenodd;fill:#4b3900;fill-rule:evenodd" />
            <path
               id="path109"
               d="m 175.345,179.828 c -3.28,0.227 -6.253,0.143 -5.729,-3.437 2.209,-2.228 7.015,-1.198 5.729,3.437 z"
               inkscape:connector-curvature="0"
               style="clip-rule:evenodd;fill:#4b3900;fill-rule:evenodd" />
            <path
               id="path111"
               d="m 331.17,176.391 c 2.396,-0.485 3.035,0.786 4.584,1.146 -1.964,4.801 -1.604,5.113 -1.146,11.458 -5.546,-0.565 -5.941,-6.279 -9.166,-9.167 3.652,-0.978 4.349,0.998 5.729,2.292 3.361,-0.974 -1.491,-2.884 -10e-4,-5.729 z"
               inkscape:connector-curvature="0"
               style="clip-rule:evenodd;fill:#4b3900;fill-rule:evenodd" />
            <path
               id="path113"
               d="m 138.681,177.537 c 1.528,0 3.055,0 4.583,0 0.485,2.395 -0.787,3.034 -1.146,4.583 -1.674,-1 -4.437,-0.91 -3.437,-4.583 z"
               inkscape:connector-curvature="0"
               style="clip-rule:evenodd;fill:#4b3900;fill-rule:evenodd" />
            <path
               id="path115"
               d="m 129.516,184.411 c 2.995,-0.323 4.927,0.419 4.582,3.438 -1.505,1.471 -4.224,1.471 -5.729,0 0.607,-0.922 1.194,-1.86 1.147,-3.438 z"
               inkscape:connector-curvature="0"
               style="clip-rule:evenodd;fill:#4b3900;fill-rule:evenodd" />
            <path
               id="path117"
               d="m 325.441,186.704 c 4.411,-0.903 4.411,5.486 0,4.583 0,-1.528 0,-3.056 0,-4.583 z"
               inkscape:connector-curvature="0"
               style="clip-rule:evenodd;fill:#4b3900;fill-rule:evenodd" />
            <path
               id="path119"
               d="m 335.754,198.161 c -5.04,1.46 -7.292,-2.885 -4.584,-5.729 3.602,-0.165 3.936,2.939 4.584,5.729 z"
               inkscape:connector-curvature="0"
               style="clip-rule:evenodd;fill:#4b3900;fill-rule:evenodd" />
            <path
               id="path121"
               d="m 323.15,211.91 c -1.59,11.014 -8.96,16.247 -18.333,19.479 -0.575,-6.305 5.102,-6.357 6.875,-10.312 -0.275,-3.161 -3.378,-3.496 -5.729,-4.583 -1.215,-12.553 12.878,-12.026 17.187,-4.584 z"
               inkscape:connector-curvature="0"
               style="clip-rule:evenodd;fill:#4b3900;fill-rule:evenodd" />
            <path
               id="path123"
               d="m 252.111,231.389 c 2.017,0.276 2.613,1.972 2.291,4.583 -1.145,0 -2.29,0 -3.436,0 -0.484,-2.395 0.785,-3.034 1.145,-4.583 z"
               inkscape:connector-curvature="0"
               style="clip-rule:evenodd;fill:#4b3900;fill-rule:evenodd" />
            <path
               id="path125"
               d="m 285.339,233.681 c 1.021,-0.89 2.589,-1.232 4.584,-1.146 0.25,4.171 5.224,7.688 2.291,11.457 -6.221,-1.385 -2.91,-5.998 -6.875,-10.311 z"
               inkscape:connector-curvature="0"
               style="clip-rule:evenodd;fill:#4b3900;fill-rule:evenodd" />
            <path
               id="path127"
               d="m 158.158,249.721 c 0.665,4.485 -0.985,6.653 -2.292,9.166 -5.697,0.903 -6.447,0.353 -11.457,-1.145 -5.599,-11.221 8.921,-16.381 13.749,-8.021 z"
               inkscape:connector-curvature="0"
               style="clip-rule:evenodd;fill:#4b3900;fill-rule:evenodd" />
            <path
               id="path129"
               d="m 197.115,278.365 c -4.84,-2.798 -9.09,-6.188 -12.604,-10.312 0.371,-26.608 29.325,-0.446 12.604,10.312 z"
               inkscape:connector-curvature="0"
               style="clip-rule:evenodd;fill:#4b3900;fill-rule:evenodd" />
            <path
               id="path131"
               d="m 221.177,263.471 c 1.673,0.999 4.437,0.91 3.437,4.582 -1.527,0 -3.055,0 -4.583,0 -0.486,-2.394 0.784,-3.034 1.146,-4.582 z"
               inkscape:connector-curvature="0"
               style="clip-rule:evenodd;fill:#4b3900;fill-rule:evenodd" />
            <path
               id="path133"
               d="m 171.909,268.053 c 2.015,0.277 2.61,1.972 2.291,4.583 -1.147,0 -2.291,0 -3.438,0 -0.485,-2.395 0.785,-3.033 1.147,-4.583 z"
               inkscape:connector-curvature="0"
               style="clip-rule:evenodd;fill:#4b3900;fill-rule:evenodd" />
            <path
               id="path135"
               d="m 167.325,271.49 c 2.939,0.117 1.841,4.271 3.437,5.729 12.01,-5.447 14.095,7.846 9.166,17.186 -4.774,-1.218 -5.053,-0.296 -10.312,0 0.714,-6.276 -0.667,-16.708 -5.729,-20.622 0.924,-0.986 3.138,-0.681 3.438,-2.293 z"
               inkscape:connector-curvature="0"
               style="clip-rule:evenodd;fill:#4b3900;fill-rule:evenodd" />
            <path
               id="path137"
               d="m 159.304,277.22 c 6.836,0.251 11.572,17.612 4.584,20.623 -0.46,-5.572 -3.274,-12.786 -4.584,-20.623 z"
               inkscape:connector-curvature="0"
               style="clip-rule:evenodd;fill:#4b3900;fill-rule:evenodd" />
            <path
               id="path139"
               d="m 153.575,297.843 c 0.756,1.575 3.745,10.74 5.729,14.896 -5,0.801 -5.094,-3.307 -9.166,-3.437 -0.045,-5.01 4.169,-5.76 3.437,-11.459 z"
               inkscape:connector-curvature="0"
               style="clip-rule:evenodd;fill:#f6e7a1;fill-rule:evenodd" />
            <path
               id="path141"
               d="m 250.967,109.937 c -3.907,-1.059 -2.367,-7.564 -4.584,-10.312 3.426,-2.305 3.668,-7.792 6.875,-10.313 -2.518,-3.896 -4.979,-6.985 0,-10.312 -0.642,-1.649 -1.788,-2.796 -3.438,-3.437 -5.588,0.141 -3.382,8.075 -8.021,9.166 -0.688,4.126 3.498,3.376 3.437,6.875 -3.321,0.305 -6.812,-2.101 -10.312,2.291 -2.571,-2.774 -1.917,-8.776 -9.165,-6.875 -0.948,-3.237 1.614,-2.968 1.146,-5.729 3.9,-0.082 4.268,3.371 5.729,5.729 16.259,-0.546 2.845,-14.8 6.875,-20.624 -0.508,-1.02 -1.006,-2.049 -2.291,-2.292 -5.956,-0.4 -1.374,5.381 -3.438,6.875 -4.57,-1.133 -3.449,3.424 -8.02,2.292 -0.828,3.501 1.171,4.175 1.146,6.875 -1.46,-1.562 -5.612,-1.771 -5.729,1.146 -1.993,-3.01 -5.612,-5.078 -8.021,-4.583 -0.855,-3.53 3.95,-1.397 2.291,-5.729 -3.031,-3.692 -7.524,0.801 -5.728,5.729 -5.228,-0.481 -4.352,-3.653 -3.438,-8.02 -1.929,-4.816 -11.094,-1.584 -13.75,0 -8.19,-8.941 -13.721,-6.974 -27.5,-5.729 -3.92,-5.52 -13.249,-6.829 -16.041,-10.312 -3.656,0.162 -3.401,4.236 -6.874,4.583 2.819,-11.31 -5.794,-5.599 -5.729,-12.604 -4.805,1.195 -8.143,6.42 -5.729,11.458 -5.757,-1.215 -2.755,-10.869 0,-14.896 -6.545,-0.967 -9.317,11.137 -12.604,17.188 -4.276,-3.906 3.242,-13.771 5.729,-18.333 -6.94,-1.194 -10.007,11.367 -14.895,16.041 -0.75,-7.08 8.773,-24.011 16.041,-19.479 3.593,-0.792 1.495,-3.056 1.146,-5.728 4.002,-0.201 5.768,-2.637 6.875,-5.729 15.916,2.738 27.009,-13.221 45.833,-10.312 3.68,-2.319 9.301,-5.262 14.894,-2.291 1.155,-4.937 11.592,-4.74 11.457,1.146 2.199,-2.386 4.379,-4.789 8.021,-5.729 2.119,0.172 0.704,3.879 2.291,4.583 2.644,0.351 1.273,-3.31 3.438,-3.438 18.778,0.546 34.697,5.788 43.539,18.333 7.376,10.466 14.12,19.949 11.458,33.228 -3.505,-2.394 -1.918,-6.492 -4.583,-11.458 -7.896,-1.652 -8.166,-10.931 -19.479,-9.166 -1.07,0.84 -1.734,2.084 -2.293,3.438 1.79,6.895 8.175,15.106 16.043,9.167 1.075,4.269 3.075,7.619 3.438,12.603 3.556,1.504 3.27,-0.31 8.02,0 -0.172,6.32 -3.507,9.478 -3.438,16.041 -11.723,-1.444 -4.607,-16.106 -9.166,-20.624 -4.051,5.034 -3.24,-2.047 -6.875,-3.437 -7.776,-0.567 -5.696,8.726 -1.146,10.312 4.024,0.671 3.771,-5.417 6.877,-2.292 -0.204,6.29 -3.66,9.327 -6.877,12.603 -0.188,8.225 5.131,15.878 12.605,6.875 2.707,2.844 0.456,7.189 -4.584,5.729 4.174,12.113 -11.649,13.903 -11.456,19.477 z m 9.166,-14.896 c -2.277,-0.015 -1.457,-3.125 -4.584,-2.292 -0.824,6.268 -2.966,4.098 -6.874,6.875 0.141,2.915 1.669,4.442 4.583,4.583 1.461,-3.066 1.827,-5.447 5.729,-3.437 -0.469,-2.76 2.091,-2.49 1.146,-5.729 z M 221.177,28.586 c 3.766,4.58 15.755,2.531 14.894,-4.583 -3.671,-7.61 -17.759,-0.823 -14.894,4.583 z m -72.186,12.603 c 0.829,-5.41 -4.14,-5.025 -8.019,-5.729 0.941,3.643 4.918,4.25 8.019,5.729 z m 76.769,13.75 c 1.646,1.79 2.886,3.988 5.728,4.583 2.57,-4.212 9.295,-9.404 8.021,-13.75 -6.238,-6.276 -13.378,2.385 -13.749,9.167 z m -74.476,-8.021 c 0,1.146 0,2.292 0,3.438 3.6,0.543 4.682,-1.429 5.729,-3.438 -2.182,-2.146 -2.879,-0.125 -5.729,0 z m 95.099,25.208 c -1.985,-4.367 1.955,-7.539 -3.438,-8.021 -0.573,0.911 -1.744,9.364 3.438,8.021 z m -22.915,2.291 c 1.56,-2.679 -0.524,-9.637 -5.729,-9.166 0.449,4.517 0.065,9.865 5.729,9.166 z m 44.684,-1.146 c 4.022,-0.506 4.858,-2.416 3.438,-5.728 -1.528,0 -3.055,0 -4.582,0 -0.366,2.657 0.182,4.399 1.144,5.728 z"
               inkscape:connector-curvature="0"
               style="clip-rule:evenodd;fill:#f6e7a1;fill-rule:evenodd" />
            <path
               id="path143"
               d="m 233.779,124.832 c 3.824,1.151 3.758,-1.59 3.438,-4.583 2.182,2.147 2.877,0.126 5.728,0 0.562,5.958 5.18,14.749 0,19.479 -3.501,0.828 -4.174,-1.171 -6.875,-1.146 -4.412,0.169 0.419,9.585 -6.874,6.875 3.075,-3.433 1.702,-6.105 1.146,-11.458 2.61,0.321 4.307,-0.276 4.582,-2.292 0.835,-3.126 -2.275,-2.306 -2.291,-4.583 -3.209,1.318 -5.957,1.318 -9.166,0 -1.197,-2.621 -0.729,-6.912 -2.291,-9.166 -4.292,-0.09 -3.465,4.939 -9.165,3.438 0,1.146 0,2.291 0,3.437 2.755,4.403 6.087,-3.233 8.019,0 -3.965,5.386 2.308,8.676 2.291,13.749 -6.572,0.081 -2.976,-10.008 -9.166,-10.312 -5.448,3.734 1.91,6.863 2.291,11.458 -1.328,-0.962 -3.07,-1.511 -5.728,-1.146 -3.334,4.43 4.081,4.52 1.146,8.022 -8.054,-0.521 -0.26,-10.939 -9.166,-11.459 -1.661,9.191 3.757,14.329 11.457,17.187 4.935,1.095 4.479,-6.641 8.021,-3.437 -3.194,7.167 -13.488,9.234 -18.334,11.458 -0.946,3.238 1.615,2.968 1.147,5.729 -5.54,-2.13 -6.356,0.376 -11.459,1.146 -2.185,11.259 -16.461,3.931 -18.331,16.041 -2.057,0.146 -2.418,-1.402 -4.584,-1.146 -5.73,0.763 -0.725,12.261 -6.875,12.604 -0.918,-5.883 1.228,-8.702 2.29,-12.604 0.196,-2.867 -1.757,-3.587 -3.436,-4.583 -6.177,2.99 -2.532,15.801 -6.875,20.624 -6.006,-2.196 1.251,-11.562 -3.438,-13.75 -5.247,5.111 -4.121,15.519 -4.583,21.771 -7.793,-0.636 2.2,-12.646 -8.019,-11.458 -4.678,5.449 3.182,13.114 0,17.187 -6.282,-2.12 -0.472,-16.335 -6.875,-18.332 -3.338,7.184 1.596,15.953 2.291,22.915 -3.239,-0.946 -2.968,1.615 -5.729,1.146 -6.6,-8.471 -1.089,-24.32 -5.729,-30.935 -5.555,7.175 0.222,26.47 1.146,33.227 -11.107,0.031 -4.743,-17.409 -10.312,-22.915 -3.669,2.926 -0.621,12.96 0,20.623 -6.283,-2.5 -3.289,-14.279 -8.02,-18.331 -2.573,2.648 -0.92,10.791 0,13.748 -6.076,-1.943 -2.205,-13.837 -6.875,-17.186 -2.641,3.088 -0.407,11.05 -1.146,16.04 -3.977,-5.943 -4.03,-19.624 -5.729,-30.936 -6.409,0.849 -4.088,10.425 -4.583,17.187 -7.469,-3.267 -0.331,-17.458 -3.438,-22.916 -3.336,1.629 -3.144,6.786 -4.583,10.312 -5.057,-3.221 0.967,-10.547 -3.437,-13.75 -5.233,10.087 -2.534,28.099 1.146,37.811 5.163,-1.932 -0.321,-7.386 1.146,-12.604 4.591,3.431 2.777,13.264 8.021,16.04 -2.704,-2.262 -7.669,-2.261 -11.458,-3.437 -2.562,-7.368 -4.795,-15.065 -6.875,-22.916 -4.952,1.609 0.365,6.407 -1.146,11.458 -2.149,-2.816 -2.081,-7.849 -3.437,-11.458 -8.861,1.803 0.582,15.492 0,16.041 -7.696,-1.604 -3.086,-18.556 -11.458,-16.041 0.018,-5.688 -5.471,-19.878 2.292,-19.479 -1.024,5.559 -2.008,15.824 9.166,14.895 3.063,-4.972 -2.698,-14.585 0,-19.478 9.555,1.834 15.734,-8.936 26.352,-3.437 2.167,-6.423 7.274,-2.788 9.167,-9.166 -0.218,-0.929 -1.15,-1.143 -1.146,-2.292 -5.446,2.606 -13.026,4.576 -18.333,1.146 -1.444,2.757 -2.312,6.089 -4.583,8.02 -4.879,-0.677 -7.579,0.824 -11.458,1.146 0.339,-4.448 0.339,-5.865 0,-10.312 -4.667,1.76 -8.116,12.447 -6.875,19.478 -4.15,-1.921 -6.53,-7.357 -11.458,-2.292 0,-3.055 0,-6.111 0,-9.166 -9.581,5.894 -2.137,25.911 -2.292,36.665 -11.096,-3.592 -2.886,-22.04 -6.874,-33.228 -6.186,4.537 -3.352,13.857 -3.437,20.623 -5.602,-5.727 -0.364,-9.588 -2.292,-19.478 -4.567,-0.748 -3.282,4.356 -3.437,8.02 -1.848,2.143 -0.734,-8.367 -3.438,-9.166 -1.41,0.5 -2.353,1.466 -2.291,3.437 -5.79,-1.031 2.884,-11.042 -3.438,-12.603 -4.913,0.894 1.038,5.542 -2.292,8.021 -3.258,-5.685 -0.559,-12.015 -5.728,-11.458 -0.273,-4.475 6.311,-2.092 5.728,-6.875 -0.481,-2.573 -6.08,-0.031 -6.874,-2.292 0.65,-5.942 5.192,-4.816 1.146,-10.312 7.016,-2.585 9.103,-1.42 17.186,-2.292 0,-1.528 0,-3.056 0,-4.583 -6.659,1.442 -10.092,2.077 -14.895,0 7.121,-1.879 1.878,-9.788 6.875,-12.603 2.514,1.306 4.682,2.957 9.167,2.292 -3.958,-4.949 0.078,-10.932 3.438,-14.896 3.862,1.071 3.322,5.205 6.874,1.146 -0.576,-4.444 5.132,-6.262 8.02,-10.312 15.73,0.835 15.699,-14.092 30.937,-13.749 3.681,-1.007 1.57,3.776 4.583,3.438 5.479,-0.632 6.331,-5.891 11.458,-6.875 -0.099,1.626 -0.189,3.244 1.146,3.437 3.699,1.025 1.61,-3.737 3.438,-4.583 30.256,-5.22 67.064,-1.137 95.099,8.02 0.961,1.33 1.513,3.071 1.146,5.729 17.922,1.448 26.775,10.16 35.52,17.187 -0.015,2.277 -3.126,1.458 -2.291,4.583 0.218,0.928 1.149,1.142 1.146,2.292 2.61,0.319 4.307,-0.276 4.582,-2.292 4.106,2.004 4.261,7.96 8.021,10.312 -0.592,5.518 -6.499,5.723 -6.875,11.459 z m 5.73,12.603 c -0.05,-1.577 0.54,-2.515 1.146,-3.437 -1.329,-0.961 -3.072,-1.511 -5.729,-1.146 -0.531,3.587 0.996,5.114 4.583,4.583 z m -9.166,-12.603 c 0.188,-6.316 1.599,-12.609 -6.875,-14.895 1.945,-1.112 2.944,-3.167 2.292,-6.875 -4.826,2.812 -8.646,6.632 -11.457,11.458 4.667,0.277 10.711,0.046 13.749,4.583 -1.152,2.286 -5.068,1.808 -4.584,5.729 1.466,1.566 5.41,1.566 6.875,0 z m -60.727,51.559 c -0.524,3.58 2.448,3.664 5.729,3.437 1.286,-4.635 -3.52,-5.665 -5.729,-3.437 z m -91.662,-9.166 c 0.366,-2.657 -0.184,-4.399 -1.146,-5.729 -1.577,-0.049 -2.516,0.54 -3.438,1.146 -0.53,3.587 0.997,5.114 4.584,4.583 z M 64.205,79 c 3.342,3.01 4.312,1.271 9.166,2.292 C 72.572,78.341 65.606,74.368 64.205,79 Z m 105.411,-2.291 c 0.344,-3.019 -1.587,-3.761 -4.584,-3.438 -0.937,4.101 2.441,5.688 4.584,3.438 z m 1.146,3.437 c 1.466,1.567 5.41,1.567 6.875,0 0.214,-5.611 -7.09,-5.611 -6.875,0 z M 59.622,95.041 c -0.141,-2.915 -1.668,-4.443 -4.583,-4.583 -2.351,3.446 1.403,7.198 4.583,4.583 z m 160.408,5.73 c 1.872,-2.207 1.938,-9.559 -2.291,-9.167 -4.445,1.212 -0.622,8.329 2.291,9.167 z M 38.998,106.5 c -0.131,-4.07 -3.792,-4.61 -8.02,-4.583 -0.541,4.741 5.358,3.042 8.02,4.583 z m 42.394,6.874 c 3.003,1.581 3.944,5.223 8.02,5.729 1.883,-3.465 4.532,-6.161 3.438,-12.603 -5.015,-4.024 -13.046,-2.036 -11.458,6.874 z m 147.804,-2.291 c 1.636,0.274 1.933,1.887 3.438,2.292 0.36,-1.55 1.632,-2.188 1.146,-4.583 -2.612,-0.321 -4.308,0.275 -4.584,2.291 z m -37.81,12.603 c -1.421,-13.894 -19.581,-1.535 -10.311,11.458 6.273,-1.588 10.888,-5.81 10.311,-11.458 z M 33.269,139.727 c -3.388,1.959 -10.855,-0.162 -9.166,6.875 2.477,2.583 3.908,-0.949 8.021,0 0.931,3.962 -2.14,4.836 0,6.874 6.414,-8.497 22.87,-26.311 8.02,-35.519 -5.435,4.193 -10.463,12.022 -6.875,21.77 z m 205.092,-9.167 c 1.996,0.086 3.565,-0.256 4.584,-1.146 0.345,-3.019 -1.586,-3.761 -4.584,-3.438 0,1.529 0,3.056 0,4.584 z m -28.642,3.438 c -1.48,-2.72 -3.707,-4.695 -6.876,-5.729 -0.538,4.659 4.786,7.244 6.876,5.729 z m -195.928,0 c 2.611,0.321 4.307,-0.276 4.583,-2.292 -1.635,-0.274 -1.933,-1.886 -3.438,-2.292 -0.36,1.55 -1.63,2.189 -1.145,4.584 z m 96.245,4.582 c 4.412,0.903 4.412,-5.485 0,-4.583 0,1.528 0,3.056 0,4.583 z m -13.749,3.439 c 4.211,1.103 4.553,-5.629 1.145,-5.729 -1.682,2.701 -2.417,2.13 -1.145,5.729 z m -34.373,4.583 c 1.995,0.085 3.563,-0.256 4.583,-1.146 -0.14,-2.915 -1.667,-4.443 -4.583,-4.583 -1.471,1.505 -1.471,4.223 0,5.729 z m 45.831,0 c 1.528,0 3.056,0 4.583,0 1.488,-5.875 -5.608,-5.333 -4.583,0 z m -61.873,2.291 c 0.361,-1.549 1.631,-2.188 1.146,-4.583 -1.528,0 -3.056,0 -4.583,0 -0.323,2.997 0.419,4.928 3.437,4.583 z m 8.022,6.875 c -0.022,-3.6 3.784,-6.392 1.146,-9.166 -3.769,0.715 -6.502,8.45 -1.146,9.166 z M 198.26,152.33 c 2.389,-2.281 0.037,-4.894 -2.291,-5.728 -1.818,1.711 -1.675,6.531 2.291,5.728 z m -42.394,8.021 c 5.518,0.552 5.45,-4.483 6.876,-8.021 -1.635,-0.274 -1.932,-1.887 -3.438,-2.291 -1.401,3.018 -6.158,6.755 -3.438,10.312 z m 33.228,4.583 c 3.84,-1.891 8.071,-3.386 9.166,-8.021 -5.381,0.417 -3.242,-6.687 -9.166,-5.729 -2.685,3.894 -2.685,9.857 0,13.75 z m -41.247,-8.021 c 0,-1.527 0,-3.055 0,-4.583 -1.147,0 -2.292,0 -3.438,0 -0.323,2.997 0.418,4.929 3.438,4.583 z m -16.04,9.167 c 2.278,2.297 5.453,-0.361 8.019,-1.146 -1.505,-3.556 0.31,-3.27 0,-8.021 -1.465,-0.062 -1.586,-1.468 -3.437,-1.146 0.959,5.71 -3.75,4.223 -4.582,10.313 z m -35.52,-3.438 c 3.58,0.524 3.663,-2.448 3.438,-5.729 -1.146,0 -2.292,0 -3.438,0 0,1.91 0,3.82 0,5.729 z m 20.623,1.146 c 0.253,-0.893 0.96,-1.333 2.292,-1.146 0.938,-4.374 -2.438,-4.436 -4.583,-5.729 -2.463,2.444 -0.426,6.241 2.291,6.875 z m 6.875,-3.437 c -0.345,3.019 1.587,3.761 4.583,3.438 0.322,-2.996 -0.418,-4.929 -3.438,-4.583 -0.063,0.697 -0.17,1.356 -1.145,1.145 z m 19.479,10.312 c 3.593,-1.372 4.245,-5.686 4.583,-10.312 -1.355,-1.319 -4.05,-1.297 -6.875,-1.146 1.182,5.502 -3.768,10.424 2.292,11.458 z m 20.624,-5.729 c 2.996,0.323 4.929,-0.418 4.583,-3.438 -1.465,-0.063 -1.588,-1.468 -3.439,-1.146 -0.36,1.55 -1.63,2.189 -1.144,4.584 z m -96.246,6.874 c 0.361,-1.548 1.631,-2.188 1.146,-4.583 -1.146,0 -2.292,0 -3.438,0 -0.32,2.612 0.277,4.307 2.292,4.583 z m 53.852,-3.437 c -0.347,3.019 1.586,3.761 4.582,3.438 0,-1.527 0,-3.055 0,-4.583 -1.996,-0.087 -3.562,0.255 -4.582,1.145 z m 64.163,-1.146 c -1.526,0 -3.055,0 -4.582,0 -0.903,4.412 5.486,4.412 4.582,0 z m -24.061,2.292 c 2.914,9.837 9.045,-4.878 0,0 l 0,0 z M 95.141,182.12 c 4.979,5.716 10.332,11.056 19.479,12.604 0.953,-4.373 -2.617,-13.158 -1.146,-21.77 -3.72,0.665 -5.332,-0.78 -8.02,-1.146 -4.66,3.4 -3.999,11.404 -10.313,10.312 z m 35.519,-4.583 c 1.996,0.086 3.564,-0.256 4.583,-1.146 0.345,-3.019 -1.587,-3.76 -4.583,-3.437 0,1.527 0,3.055 0,4.583 z m 18.331,2.291 c 1.465,1.568 5.411,1.568 6.875,0 0.299,-3.735 -1.359,-5.514 -4.582,-5.729 -0.492,2.182 -2.469,2.88 -2.293,5.729 z m -6.873,2.292 c 0.359,-1.549 1.631,-2.188 1.146,-4.583 -1.528,0 -3.055,0 -4.583,0 -1,3.673 1.763,3.583 3.437,4.583 z m -13.749,5.729 c 1.505,1.471 4.224,1.471 5.729,0 0.345,-3.018 -1.587,-3.76 -4.582,-3.438 0.047,1.578 -0.54,2.516 -1.147,3.438 z"
               inkscape:connector-curvature="0"
               style="clip-rule:evenodd;fill:#f6e7a1;fill-rule:evenodd" />
            <path
               id="path145"
               d="m 264.715,105.354 c 15.723,2.503 29.371,12.263 29.79,26.352 3.76,1.97 7.846,3.613 13.75,3.437 8.716,10.515 21.465,10.402 30.936,20.625 20.136,21.73 11.763,64.467 0,89.371 8.638,0.489 19.76,1.387 27.5,5.728 3.874,8.829 5.738,18.492 1.145,27.499 -2.909,1.703 -4.418,2.694 -8.02,4.584 -16.215,8.502 -35.015,28.16 -51.561,35.519 -6.931,3.081 -25.48,9.771 -35.519,10.312 -2.247,0.12 -5.67,-1.641 -8.021,-1.146 -7.321,1.546 -11.168,8.866 -18.332,11.458 -15.378,5.564 -31.45,2.914 -46.977,6.874 -3.02,0.346 -3.761,-1.585 -3.438,-4.583 -14.683,7.564 -63.339,12.027 -67.6,-9.166 -2.09,-10.392 3.319,-17.251 11.457,-21.77 -9.882,-9.724 -20.972,-23.923 -16.041,-44.686 -9.968,0.872 -32.353,0.298 -34.374,-13.749 C 50.883,262.06 12.03,239.52 3.479,202.744 9.722,198.675 18.368,197.009 24.104,192.432 16.013,181.592 1.615,173.671 0.042,156.912 -0.351,152.718 2.216,149.41 2.334,145.454 2.731,132.186 -1.667,118.739 4.625,105.352 21.556,94.244 26.98,82.72 49.311,75.563 59.629,72.255 71.941,62.597 80.247,60.668 c 7.458,-1.733 11.257,1.393 16.041,-2.292 5.999,-4.622 6.087,-13.54 11.458,-20.625 14.678,-19.364 37.389,-24.379 61.872,-32.081 3.604,-1.313 2.785,1.799 4.584,2.292 31.505,-15.154 90.779,-9.899 97.39,26.353 2.164,3.564 7.248,4.211 9.165,8.021 4.998,25.564 0.245,46.293 -16.042,63.018 z m -2.291,-14.896 c 5.04,1.461 7.291,-2.885 4.584,-5.729 -7.475,9.003 -12.793,1.35 -12.605,-6.875 3.217,-3.276 6.673,-6.313 6.877,-12.603 -3.106,-3.125 -2.853,2.963 -6.877,2.292 -4.55,-1.586 -6.63,-10.879 1.146,-10.312 3.635,1.39 2.824,8.471 6.875,3.437 4.559,4.517 -2.557,19.18 9.166,20.624 -0.069,-6.563 3.266,-9.72 3.438,-16.041 -4.75,-0.31 -4.464,1.504 -8.02,0 -0.362,-4.984 -2.362,-8.334 -3.438,-12.603 -7.868,5.939 -14.253,-2.272 -16.043,-9.167 0.559,-1.354 1.223,-2.598 2.293,-3.438 11.312,-1.765 11.582,7.514 19.479,9.166 2.665,4.966 1.078,9.065 4.583,11.458 C 276.544,47.389 269.8,37.906 262.424,27.439 253.582,14.894 237.663,9.652 218.885,9.106 c -2.165,0.128 -0.795,3.789 -3.438,3.438 -1.587,-0.704 -0.172,-4.411 -2.291,-4.583 -3.643,0.94 -5.822,3.343 -8.021,5.729 0.135,-5.885 -10.302,-6.083 -11.457,-1.146 -5.593,-2.971 -11.214,-0.028 -14.894,2.291 -18.824,-2.909 -29.917,13.05 -45.833,10.312 -1.107,3.092 -2.872,5.529 -6.875,5.729 0.349,2.672 2.448,4.936 -1.146,5.728 -7.267,-4.532 -16.791,12.399 -16.041,19.479 4.888,-4.674 7.955,-17.235 14.895,-16.041 -2.487,4.562 -10.005,14.427 -5.729,18.333 3.287,-6.051 6.059,-18.155 12.604,-17.188 -2.755,4.026 -5.757,13.681 0,14.896 -2.414,-5.038 0.924,-10.263 5.729,-11.458 -0.065,7.005 8.548,1.294 5.729,12.604 3.473,-0.347 3.218,-4.421 6.874,-4.583 2.792,3.483 12.12,4.792 16.041,10.312 13.779,-1.245 19.309,-3.212 27.5,5.729 2.656,-1.584 11.821,-4.816 13.75,0 -0.914,4.367 -1.79,7.539 3.438,8.02 -1.797,-4.928 2.696,-9.421 5.728,-5.729 1.659,4.332 -3.146,2.199 -2.291,5.729 2.409,-0.495 6.028,1.573 8.021,4.583 0.116,-2.916 4.269,-2.708 5.729,-1.146 0.025,-2.7 -1.974,-3.374 -1.146,-6.875 4.57,1.133 3.449,-3.424 8.02,-2.292 2.064,-1.493 -2.518,-7.275 3.438,-6.875 1.285,0.242 1.783,1.272 2.291,2.292 -4.03,5.824 9.384,20.077 -6.875,20.624 -1.461,-2.358 -1.828,-5.811 -5.729,-5.729 0.469,2.761 -2.094,2.491 -1.146,5.729 7.248,-1.901 6.594,4.101 9.165,6.875 3.5,-4.392 6.99,-1.986 10.312,-2.291 0.062,-3.499 -4.125,-2.748 -3.437,-6.875 4.639,-1.091 2.433,-9.025 8.021,-9.166 1.649,0.641 2.796,1.788 3.438,3.437 -4.979,3.327 -2.518,6.416 0,10.312 -3.207,2.521 -3.449,8.008 -6.875,10.313 2.217,2.748 0.677,9.253 4.584,10.312 -0.194,-5.572 15.629,-7.362 11.456,-19.477 z m -21.77,22.916 c -3.76,-2.352 -3.914,-8.308 -8.021,-10.312 -0.275,2.016 -1.972,2.611 -4.582,2.292 0.003,-1.15 -0.929,-1.364 -1.146,-2.292 -0.835,-3.126 2.276,-2.306 2.291,-4.583 -8.744,-7.026 -17.598,-15.739 -35.52,-17.187 0.367,-2.657 -0.185,-4.399 -1.146,-5.729 -28.035,-9.157 -64.843,-13.24 -95.099,-8.02 -1.828,0.846 0.262,5.608 -3.438,4.583 -1.335,-0.193 -1.244,-1.811 -1.146,-3.437 -5.127,0.984 -5.979,6.243 -11.458,6.875 -3.013,0.339 -0.902,-4.445 -4.583,-3.438 -15.235,-0.343 -15.203,14.584 -30.934,13.749 -2.888,4.05 -8.596,5.868 -8.02,10.312 -3.552,4.059 -3.012,-0.075 -6.874,-1.146 -3.359,3.963 -7.395,9.947 -3.438,14.896 -4.485,0.666 -6.653,-0.985 -9.167,-2.292 -4.997,2.815 0.246,10.724 -6.875,12.603 4.803,2.077 8.236,1.442 14.895,0 0,1.528 0,3.056 0,4.583 -8.083,0.872 -10.17,-0.293 -17.186,2.292 4.046,5.495 -0.496,4.37 -1.146,10.312 0.794,2.261 6.393,-0.281 6.874,2.292 0.583,4.784 -6.001,2.401 -5.728,6.875 5.169,-0.558 2.47,5.772 5.728,11.458 3.33,-2.479 -2.621,-7.127 2.292,-8.021 6.321,1.562 -2.353,11.572 3.438,12.603 -0.062,-1.971 0.881,-2.938 2.291,-3.437 2.704,0.799 1.589,11.308 3.438,9.166 0.155,-3.664 -1.13,-8.768 3.437,-8.02 1.928,9.889 -3.31,13.75 2.292,19.478 0.085,-6.766 -2.749,-16.086 3.437,-20.623 3.988,11.188 -4.222,29.636 6.874,33.228 0.155,-10.754 -7.289,-30.771 2.292,-36.665 0,3.055 0,6.111 0,9.166 4.928,-5.066 7.308,0.37 11.458,2.292 -1.241,-7.03 2.208,-17.717 6.875,-19.478 0.339,4.447 0.339,5.864 0,10.312 3.879,-0.323 6.579,-1.824 11.458,-1.146 2.271,-1.931 3.139,-5.263 4.583,-8.02 5.307,3.431 12.887,1.46 18.333,-1.146 -0.003,1.148 0.929,1.363 1.146,2.292 -1.893,6.378 -7,2.743 -9.167,9.166 -10.618,-5.499 -16.797,5.271 -26.352,3.437 -2.698,4.893 3.063,14.506 0,19.478 -11.174,0.929 -10.19,-9.336 -9.166,-14.895 -7.763,-0.399 -2.274,13.791 -2.292,19.479 8.372,-2.515 3.762,14.437 11.458,16.041 0.582,-0.549 -8.861,-14.237 0,-16.041 1.356,3.608 1.288,8.641 3.437,11.458 1.511,-5.051 -3.807,-9.849 1.146,-11.458 2.08,7.85 4.313,15.547 6.875,22.916 3.789,1.176 8.754,1.175 11.458,3.437 -5.243,-2.776 -3.43,-12.609 -8.021,-16.04 -1.467,5.218 4.017,10.672 -1.146,12.604 -3.68,-9.712 -6.379,-27.724 -1.146,-37.811 4.404,3.203 -1.62,10.529 3.437,13.75 1.439,-3.527 1.247,-8.684 4.583,-10.312 3.107,5.458 -4.031,19.649 3.438,22.916 0.495,-6.761 -1.826,-16.338 4.583,-17.187 1.698,11.312 1.751,24.992 5.729,30.936 0.739,-4.99 -1.494,-12.952 1.146,-16.04 4.67,3.349 0.799,15.242 6.875,17.186 -0.92,-2.957 -2.573,-11.1 0,-13.748 4.731,4.052 1.737,15.831 8.02,18.331 -0.621,-7.663 -3.669,-17.697 0,-20.623 5.569,5.506 -0.795,22.946 10.312,22.915 -0.924,-6.757 -6.7,-26.052 -1.146,-33.227 4.64,6.615 -0.871,22.464 5.729,30.935 2.761,0.47 2.49,-2.092 5.729,-1.146 -0.695,-6.962 -5.629,-15.731 -2.291,-22.915 6.402,1.997 0.593,16.212 6.875,18.332 3.182,-4.072 -4.678,-11.737 0,-17.187 10.219,-1.188 0.226,10.822 8.019,11.458 0.463,-6.252 -0.663,-16.66 4.583,-21.771 4.689,2.188 -2.568,11.554 3.438,13.75 4.342,-4.823 0.698,-17.634 6.875,-20.624 1.678,0.996 3.631,1.716 3.436,4.583 -1.062,3.901 -3.208,6.72 -2.29,12.604 6.15,-0.343 1.145,-11.84 6.875,-12.604 2.166,-0.257 2.527,1.292 4.584,1.146 1.87,-12.11 16.146,-4.781 18.331,-16.041 5.103,-0.77 5.919,-3.276 11.459,-1.146 0.468,-2.761 -2.094,-2.491 -1.147,-5.729 4.846,-2.224 15.14,-4.291 18.334,-11.458 -3.542,-3.204 -3.087,4.532 -8.021,3.437 -7.7,-2.858 -13.118,-7.996 -11.457,-17.187 8.906,0.52 1.112,10.938 9.166,11.459 2.936,-3.502 -4.479,-3.592 -1.146,-8.022 2.657,-0.365 4.399,0.185 5.728,1.146 -0.381,-4.595 -7.739,-7.724 -2.291,-11.458 6.19,0.304 2.594,10.392 9.166,10.312 0.017,-5.072 -6.256,-8.362 -2.291,-13.749 -1.932,-3.233 -5.264,4.403 -8.019,0 0,-1.146 0,-2.292 0,-3.437 5.7,1.501 4.873,-3.528 9.165,-3.438 1.562,2.254 1.094,6.545 2.291,9.166 3.209,1.318 5.957,1.318 9.166,0 0.016,2.277 3.126,1.457 2.291,4.583 -0.275,2.016 -1.972,2.612 -4.582,2.292 0.556,5.353 1.929,8.025 -1.146,11.458 7.293,2.709 2.462,-6.707 6.874,-6.875 2.701,-0.025 3.374,1.975 6.875,1.146 5.18,-4.73 0.562,-13.521 0,-19.479 -2.851,0.126 -3.546,2.147 -5.728,0 0.319,2.994 0.386,5.734 -3.438,4.583 0.373,-5.737 6.28,-5.942 6.872,-11.459 z m 2.291,-8.02 c 2.676,-4.803 0.88,-3.542 0,-9.167 -3.238,0.947 -2.969,-1.615 -5.728,-1.146 1.874,3.473 2.731,7.963 5.728,10.313 z m 100.827,89.37 c -12.804,0.565 0.671,-21.281 -5.728,-28.644 -1.972,-0.452 -2.938,1.7 -3.438,0 -5.514,-7.471 -10.494,-15.477 -22.915,-16.041 -14.956,-15.192 -38.687,-14.793 -63.018,-9.167 -10.283,5.387 -20.484,20.442 -32.081,17.188 -4.286,4.968 1.611,6.812 -1.147,12.603 -19.219,1.021 -28.353,12.129 -40.102,20.625 -0.664,3.719 0.781,5.329 1.146,8.021 -21.001,0.387 -28.207,14.568 -40.103,24.061 -0.55,8.234 -2.61,14.957 -8.02,18.332 1.797,12.96 -4.663,28.592 2.291,38.957 2.154,-3.575 2.92,-8.538 8.021,-9.167 5.343,4.44 1.38,11.148 4.583,17.187 -1.464,1.591 -5.41,0.7 -6.875,2.291 -0.549,3.604 1.632,4.479 2.292,6.875 4.062,0.242 2.262,-5.374 6.875,-4.583 0,3.819 0,7.639 0,11.459 5.905,-3.643 2.479,-13.665 2.292,-18.333 2.336,-2.302 2.246,0.507 4.582,1.146 0.627,-1.665 -1.338,-5.923 1.146,-5.73 4,3.504 6.792,13.498 4.583,19.479 5.17,1.706 9.027,4.722 12.604,8.021 1.319,-2.501 0.228,-7.412 3.438,-8.021 3.556,8.18 -2.176,13.021 -1.147,18.333 8.842,-0.708 3.879,-15.22 9.166,-19.478 3.231,5.721 -3.058,16.221 -1.144,20.624 9.912,-8.44 5.186,-25.358 3.437,-38.958 1.577,0.05 2.516,-0.539 3.438,-1.145 6.953,2.585 8.594,0.221 14.894,0 2.13,3.272 5.694,14.54 1.147,17.186 -3.724,-0.702 -7.218,-1.589 -9.166,-1.145 3.175,7.119 1.245,15.778 -2.293,21.77 -5.899,-3.59 2.6,-9.298 -1.146,-12.604 -1.48,4.631 -3.131,9.089 -3.437,14.896 4.173,0.354 7.456,-0.184 10.311,-1.146 3.016,-5.771 2.979,-14.591 9.167,-17.188 0.839,8.095 -5.188,9.326 -4.584,17.188 10.631,-6.685 9.065,-25.046 6.876,-38.956 8.521,5.609 4.308,25.531 4.584,33.229 6.828,-11.077 2.244,-22.254 3.437,-33.229 3.824,2.085 3.968,5.984 8.021,2.292 4.901,7.01 1.119,18.896 3.437,26.353 5.655,-8.635 0.167,-18.997 3.438,-26.353 5.845,2.815 3.239,16.687 2.291,22.915 11.241,-4.264 3.34,-21.213 6.875,-32.081 1.971,-0.062 2.938,0.881 3.437,2.291 -6.958,10.312 7.242,17.729 1.146,27.498 11.092,-6.391 14.119,-30.774 6.875,-42.395 -1.971,5.411 1.08,13.465 -1.146,19.479 -6.562,-0.313 -2.148,-11.601 -3.437,-17.187 -2.346,-3.046 -5.971,-9.483 -4.583,-12.604 4.281,-1.224 3.266,2.846 6.875,2.292 -0.13,-4.071 -4.238,-4.165 -3.439,-9.167 15.464,9.486 14.814,34.005 10.314,50.414 6.578,-0.295 2.291,-11.456 6.873,-13.748 5.431,4.735 -1.382,14.825 -3.436,19.479 11.858,0.4 14.514,-8.401 17.185,-17.187 -6.48,1.539 -6.015,10.024 -11.456,12.602 7.083,-20.196 -5.532,-41.905 -10.312,-56.143 5.907,0.966 5.083,8.666 10.312,10.312 0.215,2.34 3.737,-4.211 4.582,1.146 -0.172,2.12 -3.878,0.704 -4.582,2.292 1.007,2.811 1.031,6.607 4.582,6.875 -2.158,-3.986 0.568,-5.093 3.438,-6.875 -3.773,-7.312 -5.624,-22.624 -5.729,-29.79 8.993,12.776 7.971,35.568 16.04,49.268 -1.378,5.901 -5.939,14.656 -4.584,19.479 21.354,-16.666 -7.875,-49.057 1.147,-60.726 1.582,2.238 1.604,6.033 4.583,6.875 -4.265,10.431 6.688,22.312 6.875,37.811 3.769,-9.856 1.395,-18.972 1.145,-26.354 5.144,0.968 3.161,9.061 4.585,13.75 7.928,-0.187 -0.062,-12.398 3.437,-14.896 5.812,7.34 4.565,14.78 2.291,24.062 13.22,-6.889 -1.397,-26.564 3.438,-33.228 1.753,8.941 7.222,14.168 5.729,26.354 8.738,-4.861 -4.954,-23.062 1.146,-28.645 4.724,4.825 3.866,15.229 6.875,21.77 5.896,-8.539 -5.73,-19.385 0,-24.062 3.719,0.864 1.77,7.396 5.728,8.021 0.646,-5.229 -2.029,-7.136 -1.145,-12.604 1.996,-0.086 3.562,0.257 4.582,1.146 -0.014,-3.526 -4.972,-8.684 0,-10.312 1.527,-0.171 3.459,4.659 4.584,1.146 -4.237,-4.701 3.449,-3.715 4.584,-4.584 -1.557,-2.646 -3.295,-5.108 -3.439,-9.166 -4.331,-1.658 -2.197,3.148 -5.729,2.292 1.959,-3.923 -2.047,-8.702 5.729,-8.021 -0.895,5.097 1.081,7.322 5.73,6.875 -0.045,-6.065 -6.26,-5.963 -6.875,-11.458 2.065,-2.804 8.273,3.089 8.017,-3.439 z M 221.177,146.602 c 2.824,0.15 5.519,0.172 6.875,-1.146 -0.776,-2.664 -2.062,-4.812 -5.73,-4.583 0.947,3.237 -1.616,2.968 -1.145,5.729 z m -71.039,162.7 c 4.072,0.13 4.166,4.237 9.166,3.437 -1.984,-4.155 -4.973,-13.32 -5.729,-14.896 0.732,5.699 -3.482,6.449 -3.437,11.459 z"
               inkscape:connector-curvature="0"
               style="clip-rule:evenodd;fill:#4b3900;fill-rule:evenodd" />
            <path
               id="path147"
               d="m 335.754,198.161 c 0.615,5.495 6.83,5.393 6.875,11.458 -4.649,0.447 -6.625,-1.778 -5.73,-6.875 -7.775,-0.682 -3.77,4.098 -5.729,8.021 3.531,0.856 1.397,-3.95 5.729,-2.292 0.145,4.058 1.883,6.521 3.439,9.166 -1.135,0.869 -8.821,-0.117 -4.584,4.584 -1.125,3.513 -3.057,-1.317 -4.584,-1.146 -4.972,1.629 -0.014,6.786 0,10.312 -1.02,-0.89 -2.586,-1.232 -4.582,-1.146 -0.885,5.469 1.791,7.375 1.145,12.604 -3.958,-0.625 -2.009,-7.157 -5.728,-8.021 -5.73,4.677 5.896,15.522 0,24.062 -3.009,-6.54 -2.151,-16.944 -6.875,-21.77 -6.101,5.582 7.592,23.783 -1.146,28.645 1.493,-12.186 -3.976,-17.412 -5.729,-26.354 -4.835,6.663 9.782,26.339 -3.438,33.228 2.274,-9.281 3.521,-16.722 -2.291,-24.062 -3.498,2.498 4.491,14.71 -3.437,14.896 -1.424,-4.689 0.559,-12.782 -4.585,-13.75 0.25,7.382 2.624,16.497 -1.145,26.354 -0.188,-15.499 -11.14,-27.38 -6.875,-37.811 -2.979,-0.842 -3.001,-4.637 -4.583,-6.875 -9.022,11.669 20.207,44.06 -1.147,60.726 -1.355,-4.822 3.206,-13.577 4.584,-19.479 -8.069,-13.699 -7.047,-36.491 -16.04,-49.268 0.104,7.166 1.955,22.478 5.729,29.79 -2.869,1.782 -5.596,2.889 -3.438,6.875 -3.551,-0.268 -3.575,-4.064 -4.582,-6.875 0.704,-1.588 4.41,-0.172 4.582,-2.292 -0.845,-5.356 -4.367,1.194 -4.582,-1.146 -5.229,-1.646 -4.404,-9.347 -10.312,-10.312 4.779,14.237 17.395,35.946 10.312,56.143 5.441,-2.577 4.976,-11.062 11.456,-12.602 -2.671,8.785 -5.326,17.587 -17.185,17.187 2.054,-4.653 8.866,-14.743 3.436,-19.479 -4.582,2.292 -0.295,13.453 -6.873,13.748 4.5,-16.409 5.149,-40.928 -10.314,-50.414 -0.799,5.002 3.31,5.096 3.439,9.167 -3.609,0.554 -2.594,-3.516 -6.875,-2.292 -1.388,3.121 2.237,9.559 4.583,12.604 1.288,5.586 -3.125,16.873 3.437,17.187 2.227,-6.015 -0.824,-14.068 1.146,-19.479 7.244,11.62 4.217,36.004 -6.875,42.395 6.096,-9.77 -8.104,-17.186 -1.146,-27.498 -0.499,-1.41 -1.466,-2.353 -3.437,-2.291 -3.535,10.868 4.366,27.817 -6.875,32.081 0.948,-6.229 3.554,-20.1 -2.291,-22.915 -3.271,7.355 2.218,17.718 -3.438,26.353 -2.317,-7.457 1.465,-19.343 -3.437,-26.353 -4.053,3.692 -4.196,-0.207 -8.021,-2.292 -1.192,10.975 3.392,22.151 -3.437,33.229 -0.276,-7.697 3.938,-27.619 -4.584,-33.229 2.189,13.91 3.755,32.271 -6.876,38.956 -0.604,-7.861 5.423,-9.093 4.584,-17.188 -6.188,2.597 -6.151,11.417 -9.167,17.188 -2.854,0.963 -6.138,1.5 -10.311,1.146 0.306,-5.807 1.956,-10.265 3.437,-14.896 3.745,3.306 -4.754,9.014 1.146,12.604 3.538,-5.991 5.468,-14.65 2.293,-21.77 1.948,-0.444 5.442,0.442 9.166,1.145 4.547,-2.646 0.982,-13.913 -1.147,-17.186 -6.3,0.221 -7.94,2.585 -14.894,0 -0.922,0.605 -1.86,1.194 -3.438,1.145 1.749,13.6 6.476,30.518 -3.437,38.958 -1.914,-4.403 4.375,-14.903 1.144,-20.624 -5.287,4.258 -0.324,18.77 -9.166,19.478 -1.028,-5.312 4.703,-10.153 1.147,-18.333 -3.211,0.609 -2.119,5.521 -3.438,8.021 -3.576,-3.3 -7.434,-6.315 -12.604,-8.021 2.209,-5.98 -0.583,-15.975 -4.583,-19.479 -2.483,-0.192 -0.518,4.065 -1.146,5.73 -2.336,-0.64 -2.246,-3.448 -4.582,-1.146 0.187,4.668 3.614,14.69 -2.292,18.333 0,-3.82 0,-7.64 0,-11.459 -4.613,-0.791 -2.813,4.825 -6.875,4.583 -0.661,-2.396 -2.841,-3.271 -2.292,-6.875 1.465,-1.591 5.411,-0.7 6.875,-2.291 -3.202,-6.038 0.761,-12.746 -4.583,-17.187 -5.102,0.629 -5.868,5.592 -8.021,9.167 -6.954,-10.365 -0.494,-25.997 -2.291,-38.957 5.41,-3.375 7.47,-10.098 8.02,-18.332 11.896,-9.492 19.102,-23.674 40.103,-24.061 -0.365,-2.691 -1.811,-4.302 -1.146,-8.021 11.749,-8.495 20.883,-19.604 40.102,-20.625 2.759,-5.792 -3.139,-7.635 1.147,-12.603 11.597,3.255 21.798,-11.801 32.081,-17.188 24.331,-5.626 48.062,-6.025 63.018,9.167 12.421,0.564 17.401,8.569 22.915,16.041 0.5,1.7 1.466,-0.452 3.438,0 6.398,7.363 -7.076,29.209 5.728,28.644 0.257,6.53 -5.951,0.637 -8.017,3.439 z m -4.584,-5.728 c -2.708,2.844 -0.456,7.188 4.584,5.729 -0.648,-2.791 -0.982,-5.895 -4.584,-5.729 z m -38.956,51.558 c 2.933,-3.769 -2.041,-7.286 -2.291,-11.457 -1.995,-0.086 -3.562,0.257 -4.584,1.146 3.965,4.314 0.654,8.927 6.875,10.311 z M 279.611,144.31 c 0.345,-3.019 -1.587,-3.761 -4.584,-3.438 0.078,3.086 2.62,5.507 4.584,3.438 z m 0,4.583 c 2.785,4.59 6.624,-1.211 9.166,-3.438 -1.806,-0.104 -0.898,-2.923 -3.438,-2.292 0.075,3.896 -5.885,1.755 -5.728,5.73 z m -35.519,9.167 c 4.938,4.608 10.475,8.621 18.332,10.311 1.361,-3.291 2.401,-6.083 1.146,-9.166 -5.163,-1.176 -16.23,-8.723 -19.478,-1.145 z m 87.078,13.748 c -1.463,-0.063 -1.586,-1.469 -3.438,-1.146 0.679,3.523 5.656,2.747 8.021,4.583 0,-1.909 0,-3.819 0,-5.728 -1.146,0 -2.291,0 -3.438,0 -0.254,0.889 -0.03,2.259 -1.145,2.291 z m 0,10.312 c -1.38,-1.294 -2.076,-3.27 -5.729,-2.292 3.225,2.888 3.62,8.602 9.166,9.167 -0.457,-6.345 -0.817,-6.657 1.146,-11.458 -1.549,-0.36 -2.188,-1.631 -4.584,-1.146 -1.489,2.845 3.363,4.755 0.001,5.729 z m -5.729,9.167 c 4.411,0.902 4.411,-5.487 0,-4.583 0,1.527 0,3.055 0,4.583 z m -19.477,25.206 c 2.351,1.087 5.453,1.422 5.729,4.583 -1.773,3.955 -7.45,4.008 -6.875,10.312 9.373,-3.231 16.743,-8.465 18.333,-19.479 -4.31,-7.441 -18.403,-7.968 -17.187,4.584 z m -12.604,17.188 c -0.531,3.587 0.995,5.114 4.582,4.583 -1.206,-6.762 1.968,-4.788 4.584,-5.729 0.086,-1.996 -0.256,-3.562 -1.147,-4.583 -4.512,0.069 -3.068,6.095 -8.019,5.729 z m -42.393,2.291 c 1.146,0 2.291,0 3.436,0 0.322,-2.611 -0.274,-4.307 -2.291,-4.583 -0.361,1.549 -1.63,2.188 -1.145,4.583 z m -106.558,21.77 c 5.009,1.497 5.76,2.048 11.457,1.145 1.308,-2.513 2.957,-4.681 2.292,-9.166 -4.828,-8.36 -19.348,-3.2 -13.749,8.021 z m 40.103,10.311 c 3.514,4.124 7.764,7.515 12.604,10.312 16.72,-10.758 -12.234,-36.92 -12.604,-10.312 z m 35.518,0 c 1.528,0 3.056,0 4.583,0 1,-3.672 -1.764,-3.583 -3.437,-4.582 -0.361,1.548 -1.631,2.188 -1.146,4.582 z m -49.268,4.583 c 1.147,0 2.291,0 3.438,0 0.319,-2.611 -0.276,-4.306 -2.291,-4.583 -0.362,1.55 -1.632,2.188 -1.147,4.583 z m -6.874,1.147 c 5.062,3.914 6.442,14.346 5.729,20.622 5.259,-0.296 5.537,-1.218 10.312,0 4.929,-9.34 2.844,-22.633 -9.166,-17.186 -1.596,-1.459 -0.497,-5.612 -3.437,-5.729 -0.301,1.612 -2.515,1.307 -3.438,2.293 z m 0,24.06 c 6.988,-3.011 2.252,-20.372 -4.584,-20.623 1.31,7.837 4.124,15.051 4.584,20.623 z"
               inkscape:connector-curvature="0"
               style="clip-rule:evenodd;fill:#f6e7a1;fill-rule:evenodd" />
            <path
               id="path149"
               d="m 301.379,227.951 c 0.892,1.021 1.233,2.587 1.147,4.583 -2.616,0.941 -5.79,-1.032 -4.584,5.729 -3.587,0.531 -5.113,-0.996 -4.582,-4.583 4.951,0.367 3.507,-5.659 8.019,-5.729 z"
               inkscape:connector-curvature="0"
               style="clip-rule:evenodd;fill:#4b3900;fill-rule:evenodd" />
            <path
               id="path151"
               d="m 105.454,171.808 c 2.688,0.366 4.3,1.811 8.02,1.146 -1.471,8.611 2.099,17.396 1.146,21.77 -9.146,-1.548 -14.5,-6.888 -19.479,-12.604 6.314,1.092 5.653,-6.912 10.313,-10.312 z"
               inkscape:connector-curvature="0"
               style="clip-rule:evenodd;fill:#4b3900;fill-rule:evenodd" />
          </g>
          <text
             sodipodi:linespacing="125%"
             id="text5696"
             y="2491.0349"
             x="817.2085"
             style="font-style:normal;font-weight:normal;font-size:40px;line-height:125%;font-family:sans-serif;text-align:end;letter-spacing:0px;word-spacing:0px;text-anchor:end;fill:#000000;fill-opacity:1;stroke:none;stroke-width:1px;stroke-linecap:butt;stroke-linejoin:miter;stroke-opacity:1"
             xml:space="preserve"><tspan
               style="font-size:30px;text-align:end;text-anchor:end;fill:#cccccc;fill-opacity:0.49019608"
               y="2491.0349"
               x="817.2085"
               id="tspan5698"
               sodipodi:role="line">Y esto son <tspan
   style="fill:#cccccc;fill-opacity:1"
   id="tspan6767">patatas</tspan>.</tspan><tspan
               style="font-size:30px;text-align:end;text-anchor:end;fill:#cccccc;fill-opacity:0.49019608"
               id="tspan5700"
               y="2528.5349"
               x="817.2085"
               sodipodi:role="line" /><tspan
               style="font-size:30px;text-align:end;text-anchor:end;fill:#cccccc;fill-opacity:0.49019608"
               id="tspan5702"
               y="2566.0349"
               x="817.2085"
               sodipodi:role="line">Para que puedas lanzrselas a quien te</tspan><tspan
               style="font-size:30px;text-align:end;text-anchor:end;fill:#cccccc;fill-opacity:0.49019608"
               id="tspan5704"
               y="2603.5349"
               x="817.2085"
               sodipodi:role="line">diga que la <tspan
   style="fill:#cccccc;fill-opacity:1"
   id="tspan6761">vista</tspan> y el <tspan
   style="fill:#cccccc;fill-opacity:1"
   id="tspan6763">modelo</tspan> pueden</tspan><tspan
               id="tspan4417"
               style="font-size:30px;text-align:end;text-anchor:end;fill:#cccccc;fill-opacity:0.49019608"
               y="2641.0349"
               x="817.2085"
               sodipodi:role="line">interactuar de forma directa entre ellos</tspan><tspan
               id="tspan4423"
               style="font-size:30px;text-align:end;text-anchor:end;fill:#cccccc;fill-opacity:0.49019608"
               y="2678.5349"
               x="817.2085"
               sodipodi:role="line">sin pasar antes por el <tspan
   style="fill:#cccccc;fill-opacity:1"
   id="tspan6765">controlador</tspan>.</tspan></text>
        </g>
      </g>
    </g>
  </g>
</svg>
